<?xml version="1.0" encoding="UTF-8"?>
<svg version="1.1" xmlns="http://www.w3.org/2000/svg" width="556" height="595">
<path d="M0 0 C183.48 0 366.96 0 556 0 C556 196.35 556 392.7 556 595 C372.52 595 189.04 595 0 595 C0 398.65 0 202.3 0 0 Z " fill="#F9EFDB" transform="translate(0,0)"/>
<path d="M0 0 C2.51613647 2.20581297 4.93582826 4.4808853 7.34375 6.8046875 C7.93655762 7.37171387 8.52936523 7.93874023 9.14013672 8.52294922 C46.86314332 44.75823557 73.17121685 95.19336776 74.60865784 148.20471191 C74.66980981 151.88433885 74.67471401 155.56217138 74.65625 159.2421875 C74.65409485 160.02260406 74.6519397 160.80302063 74.64971924 161.60708618 C74.52680293 189.5449677 70.00173931 216.52299094 60.34375 242.8046875 C58.60630618 239.67239442 57.50803524 236.41068233 56.39013672 233.01635742 C51.91145269 219.16793384 51.91145269 219.16793384 43.12109375 207.91796875 C41.34375 205.8046875 41.34375 205.8046875 41.13671875 202.5546875 C41.33201172 200.6984375 41.33201172 200.6984375 41.53125 198.8046875 C41.70720703 196.979375 41.70720703 196.979375 41.88671875 195.1171875 C41.95834229 194.4461499 42.02996582 193.7751123 42.10375977 193.08374023 C47.48873605 141.94563889 37.68983991 91.83167678 5.34375 50.8046875 C1.17141283 45.65831614 -3.18270084 40.69017143 -7.65625 35.8046875 C-8.35105469 35.03769531 -9.04585938 34.27070312 -9.76171875 33.48046875 C-39.54970539 2.16815018 -84.82091722 -17.30364529 -127.8046875 -18.4453125 C-141.20218439 -18.63195818 -154.41316827 -18.28282639 -167.65625 -16.1953125 C-168.83703125 -16.02386719 -170.0178125 -15.85242188 -171.234375 -15.67578125 C-212.45302341 -8.63955823 -252.41935263 15.44557029 -277.65625 48.8046875 C-278.39101563 49.73539062 -279.12578125 50.66609375 -279.8828125 51.625 C-298.01234208 74.98779584 -310.21492538 102.76229224 -315.65625 131.8046875 C-315.92767822 133.17778076 -315.92767822 133.17778076 -316.20458984 134.57861328 C-318.23492288 146.38966806 -317.87670421 158.23530383 -317.78125 170.1796875 C-317.77119754 172.38020425 -317.76207571 174.58072545 -317.75390625 176.78125 C-317.73207842 182.12249461 -317.69878143 187.46356969 -317.65625 192.8046875 C-310.61166718 187.19340652 -310.61166718 187.19340652 -303.63671875 181.49609375 C-265.93987191 150.33486274 -226.75104739 143.3071685 -178.53125 143.4921875 C-177.55989105 143.49367798 -176.5885321 143.49516846 -175.58773804 143.4967041 C-135.77965288 143.60590242 -101.94946192 148.58531583 -69.96875 173.4296875 C-52.55236634 186.94216196 -36.3209419 192.11788971 -14.95629883 196.5769043 C4.65463592 200.70962876 26.17987875 206.0862632 38.21875 223.6171875 C44.05259207 233.94019173 45.53087354 244.92254219 45.59375 256.5546875 C45.614375 257.493125 45.635 258.4315625 45.65625 259.3984375 C45.79530724 284.56779838 23.6259028 306.65357236 9.14599609 325.46337891 C7.59003157 327.48474166 6.03788858 329.50891961 4.48828125 331.53515625 C-5.6709837 344.80733175 -16.07947983 357.8636163 -26.65625 370.8046875 C-27.48382813 371.81789063 -28.31140625 372.83109375 -29.1640625 373.875 C-31.32645656 376.5196004 -33.4910709 379.16236708 -35.65625 381.8046875 C-37.15639281 383.63790398 -38.65639082 385.47123896 -40.15625 387.3046875 C-40.89617187 388.20832031 -41.63609375 389.11195313 -42.3984375 390.04296875 C-43.92730688 391.91305638 -45.45326568 393.78552666 -46.9765625 395.66015625 C-51.43367959 401.13712217 -55.95816632 406.53256144 -60.65625 411.8046875 C-61.9192698 409.9101578 -63.15287275 407.99537634 -64.34375 406.0546875 C-69.51305022 398.78972502 -76.09684286 393.79418542 -83.40625 388.8046875 C-84.29513916 388.18948242 -85.18402832 387.57427734 -86.09985352 386.94042969 C-90.54064777 383.88162198 -95.01087735 380.89782858 -99.59375 378.0546875 C-103.75546016 375.46020363 -107.69012516 372.64259473 -111.59375 369.6796875 C-112.13829834 369.27137695 -112.68284668 368.86306641 -113.24389648 368.44238281 C-117.50743145 365.15076618 -120.93092408 361.98066527 -122.65625 356.8046875 C-123.15879229 350.77418006 -122.6317391 346.59647703 -118.65625 341.8046875 C-105.75074347 327.79128366 -83.57709379 321.88246734 -66.32049561 314.91165161 C-46.42425764 307.10504232 -46.42425764 307.10504232 -28.3046875 296.00390625 C-26.65625 294.8046875 -26.65625 294.8046875 -23.65625 294.8046875 C-23.65625 294.1446875 -23.65625 293.4846875 -23.65625 292.8046875 C-19.69625 291.4846875 -15.73625 290.1646875 -11.65625 288.8046875 C-18.77062509 288.48484318 -25.25543991 289.7452197 -32.21875 291.1171875 C-54.46109128 295.23278711 -76.50384074 297.0683284 -99.09375 297.1171875 C-100.31186874 297.12270126 -100.31186874 297.12270126 -101.55459595 297.12832642 C-112.40484225 297.15408719 -122.92499476 296.41212151 -133.65625 294.8046875 C-133.6250708 293.66435059 -133.5938916 292.52401367 -133.56176758 291.34912109 C-133.11397232 273.21115158 -135.79542495 253.83525727 -147.98828125 239.54296875 C-152.85056078 234.47572194 -156.41190023 232.66083299 -163.40625 232.4921875 C-168.86158559 232.57105982 -172.61780488 233.00501934 -176.65625 236.8046875 C-187.30631348 248.30572457 -187.33858759 265.04926837 -187.65625 279.8046875 C-196.68836513 279.18210343 -205.40487277 277.35841442 -214.25463867 275.53759766 C-218.71454663 274.62023881 -223.17762627 273.71858768 -227.640625 272.81640625 C-228.51130615 272.6400766 -229.3819873 272.46374695 -230.27905273 272.28207397 C-240.0454577 270.31063576 -249.84092992 268.51561485 -259.65625 266.8046875 C-240.28897023 273.00719896 -220.89133631 279.01065082 -201.2956543 284.45458984 C-193.62507185 286.59610406 -186.08897915 288.92391443 -178.65625 291.8046875 C-178.81005127 291.1044043 -178.96385254 290.40412109 -179.12231445 289.68261719 C-182.01785845 276.10917544 -182.36100179 260.72870552 -174.71875 248.6171875 C-172.67893603 245.68529489 -171.0063758 244.09817236 -167.65625 242.8046875 C-162.62942286 242.34770321 -159.64491849 242.65573869 -155.65625 245.8046875 C-147.27129482 253.56077105 -144.31137876 267.35141315 -143.4519043 278.44140625 C-143.3549751 281.10732732 -143.33400016 283.76213146 -143.34375 286.4296875 C-143.32763672 287.31914062 -143.31152344 288.20859375 -143.29492188 289.125 C-143.28966182 296.27867041 -144.38475235 301.90221829 -148.90625 307.6796875 C-155.08218752 312.45200285 -163.0827533 312.40005791 -170.59375 313.1796875 C-191.09555971 315.51257529 -214.70225166 319.81217318 -228.3359375 336.91015625 C-233.54767459 344.3885364 -235.12882934 351.74423407 -233.65625 360.8046875 C-230.05429466 371.49206816 -223.51636592 378.9902036 -215.65625 386.8046875 C-214.96402344 387.53300781 -214.27179688 388.26132812 -213.55859375 389.01171875 C-208.82564028 393.93904402 -203.64531665 398.21463594 -198.31201172 402.47412109 C-196.47034062 403.95408386 -194.64273014 405.45036118 -192.81640625 406.94921875 C-186.84237032 411.84588703 -180.86658446 416.70819506 -174.65625 421.3046875 C-134.34004285 451.26795559 -134.34004285 451.26795559 -128.65625 474.8046875 C-128.39237164 477.57541025 -128.44584426 480.01681147 -128.65625 482.8046875 C-134.68414303 485.54864612 -141.41582802 486.19232102 -147.79296875 484.10546875 C-157.48648289 478.63889579 -165.52485579 468.20801374 -172.65625 459.8046875 C-174.13900364 458.08889127 -175.62569868 456.37655393 -177.11254883 454.66430664 C-178.80345492 452.71661042 -180.49175847 450.76668273 -182.1796875 448.81640625 C-184.47196514 446.16914127 -186.76900776 443.52613928 -189.0703125 440.88671875 C-194.6187103 434.51720329 -200.0961051 428.11153303 -205.4140625 421.546875 C-207.95879004 418.43468209 -210.55257352 415.36754642 -213.15625 412.3046875 C-218.06092112 406.52828114 -222.87565502 400.68435818 -227.65625 394.8046875 C-228.65329705 393.58955748 -229.65071606 392.3747326 -230.6484375 391.16015625 C-237.3799964 382.94656948 -243.92021607 374.61152061 -250.33984375 366.15234375 C-253.15513803 362.44739306 -256.01639742 358.7806462 -258.8894043 355.12036133 C-266.40899031 345.5309929 -273.59771459 335.73697701 -280.65625 325.8046875 C-281.43379639 324.71559082 -281.43379639 324.71559082 -282.22705078 323.60449219 C-287.62432464 316.04391113 -292.96135297 308.44355667 -298.15625 300.7421875 C-298.75215942 299.86784058 -298.75215942 299.86784058 -299.36010742 298.97583008 C-306.95917776 287.60082417 -310.19075125 276.52595503 -310.09375 262.8046875 C-310.11373047 261.80179687 -310.13371094 260.79890625 -310.15429688 259.765625 C-310.14970343 252.65497177 -309.11855484 246.11134236 -305.65625 239.8046875 C-303.10426177 237.44930019 -302.24386377 236.81718992 -298.71875 236.7421875 C-294.807626 238.09910807 -292.61506138 240.24192188 -290.65625 243.8046875 C-288.80156984 249.20686497 -288.12292706 254.4710984 -287.59375 260.1171875 C-287.27687067 265.62879577 -287.27687067 265.62879577 -285.65625 270.8046875 C-281.42307036 263.26202702 -282.86388675 252.11343034 -284.37890625 243.875 C-286.36313044 236.91816539 -288.62279881 231.86454702 -294.46875 227.4296875 C-298.68853789 226.22403382 -302.52544112 225.91792663 -306.58984375 227.609375 C-312.33990598 231.19543532 -314.63400914 236.60512398 -316.19555664 243.02026367 C-316.73318316 246.2696704 -316.76841662 249.34286392 -316.75390625 252.63671875 C-316.75068359 253.92900391 -316.74746094 255.22128906 -316.74414062 256.55273438 C-316.73578665 257.90755276 -316.72732172 259.26237047 -316.71875 260.6171875 C-316.71373 261.99153485 -316.70916797 263.36588395 -316.70507812 264.74023438 C-316.69330668 268.09509674 -316.67686283 271.44986971 -316.65625 274.8046875 C-319.61305069 272.05953899 -321.59208511 269.47916877 -323.4609375 265.91015625 C-323.95899902 264.96253418 -324.45706055 264.01491211 -324.97021484 263.03857422 C-325.48535645 262.0332666 -326.00049805 261.02795898 -326.53125 259.9921875 C-327.33296631 258.43395264 -327.33296631 258.43395264 -328.15087891 256.84423828 C-352.89748343 208.17465668 -355.79060913 151.55657184 -339.70727539 99.63012695 C-321.91689298 45.22086291 -284.07759007 -1.20107866 -232.96875 -27.2578125 C-157.33902526 -64.61885948 -64.95354941 -53.68219819 0 0 Z " fill="#013841" transform="translate(419.65625,92.1953125)"/>
<path d="M0 0 C8.05162275 2.24389487 14.09431299 10.18567175 19.875 16 C20.54337891 16.66451172 21.21175781 17.32902344 21.90039062 18.01367188 C25.78048269 21.90130542 29.46669569 25.89797702 33.05493164 30.05541992 C36.10833832 33.54230092 39.31019089 36.88831776 42.5 40.25 C47.33992568 45.37101839 52.16714843 50.50155884 56.9375 55.6875 C61.17004722 60.28728399 65.42080397 64.86936222 69.6875 69.4375 C70.27072021 70.06197021 70.85394043 70.68644043 71.45483398 71.32983398 C73.84237073 73.88544702 76.23063044 76.44038224 78.61962891 78.99462891 C85.48207224 86.33200749 92.32284845 93.68672279 99.1015625 101.1015625 C101.99456462 104.26505714 104.90289505 107.41428036 107.8125 110.5625 C112.36262879 115.48617453 116.89897983 120.42222143 121.42382812 125.36914062 C123.58375671 127.74845088 123.58375671 127.74845088 125.8125 130.0625 C126.87569072 144.10888508 124.60680099 158.16621147 122.8125 172.0625 C122.29518311 171.66925537 121.77786621 171.27601074 121.24487305 170.87084961 C106.19169282 159.49249323 90.78388915 154.06444195 72.49609375 149.8671875 C71.25478699 149.58109116 71.25478699 149.58109116 69.98840332 149.28921509 C65.82857707 148.3358339 61.66516834 147.40915156 57.49072266 146.52197266 C42.93228285 143.34178563 31.51363157 137.98284531 19.75 128.625 C-3.67631661 110.58264572 -26.26607178 102.67044776 -55.1875 98.0625 C-54.424375 97.19625 -53.66125 96.33 -52.875 95.4375 C-40.92752249 81.3816441 -31.01462107 66.82901725 -23.1875 50.0625 C-23.63738281 50.60777344 -24.08726562 51.15304688 -24.55078125 51.71484375 C-29.88307523 57.96613027 -35.72078345 63.01896045 -42.1875 68.0625 C-43.27245002 68.91366164 -44.35707592 69.76523656 -45.44140625 70.6171875 C-47.16755269 71.97275443 -48.89425903 73.32755813 -50.62329102 74.67944336 C-57.27949775 79.89279137 -63.82729595 85.23896843 -70.37329102 90.58959961 C-70.97197998 91.07565674 -71.57066895 91.56171387 -72.1875 92.0625 C-72.88278809 92.77083984 -73.57807617 93.47917969 -74.29443359 94.20898438 C-78.48131432 96.89141463 -82.09761202 96.61074755 -86.97265625 96.56640625 C-88.41420326 96.57883865 -88.41420326 96.57883865 -89.88487244 96.59152222 C-91.94134561 96.60874694 -93.99789893 96.6179404 -96.05444336 96.61984253 C-101.40284123 96.62847458 -106.7499748 96.70527928 -112.09765625 96.7890625 C-113.14950104 96.8051506 -114.20134583 96.82123871 -115.2850647 96.83781433 C-127.70033006 97.06813275 -139.88929753 98.36404977 -152.1875 100.0625 C-153.85913525 100.27791042 -155.53099587 100.49158248 -157.203125 100.703125 C-160.53527087 101.12956033 -163.86266131 101.58186856 -167.1875 102.0625 C-162.20868027 96.14174141 -157.00581708 90.43736081 -151.75439453 84.75878906 C-150.70410442 83.62176574 -149.65561855 82.48307332 -148.60888672 81.34277344 C-121.5680609 51.88685721 -121.5680609 51.88685721 -107.1875 41.0625 C-106.48882812 40.50433594 -105.79015625 39.94617188 -105.0703125 39.37109375 C-102.22612332 37.39432326 -100.59620773 37.53808343 -97.1875 38.0625 C-91.01238676 41.12389089 -86.10207513 45.62738447 -81.1875 50.375 C-80.14311768 51.36814209 -80.14311768 51.36814209 -79.07763672 52.38134766 C-74.83540313 56.42890136 -70.64303471 60.52335866 -66.5703125 64.7421875 C-65.20296643 66.17735606 -65.20296643 66.17735606 -63.1875 67.0625 C-62.86845703 66.26585937 -62.86845703 66.26585937 -62.54296875 65.453125 C-60.66499435 62.14096266 -58.1069339 59.55335718 -55.5 56.8125 C-54.40164351 55.63997848 -53.30398276 54.46680481 -52.20703125 53.29296875 C-51.68061035 52.7314209 -51.15418945 52.16987305 -50.61181641 51.59130859 C-46.81725239 47.51836381 -43.21540253 43.2800004 -39.625 39.02734375 C-32.87565271 31.05334893 -25.87301678 23.37545471 -18.69140625 15.7890625 C-15.01217559 11.89667242 -11.44800825 7.91463153 -7.921875 3.8828125 C-5.30632358 1.13766168 -3.84261266 0.07534535 0 0 Z " fill="#E6952D" transform="translate(338.1875,124.9375)"/>
<path d="M0 0 C0.495 0.99 0.495 0.99 1 2 C-1.44172765 8.46339671 -5.81434409 12.12090647 -11.91796875 14.95703125 C-13.33900623 15.58042105 -14.76226879 16.19875871 -16.1875 16.8125 C-28.05473386 22.19669611 -37.04014127 28.08028254 -43 40 C-44.10345138 46.48103088 -42.59898571 51.13717578 -38.9921875 56.5390625 C-27.12093227 71.20355425 -6.68648107 80.24026674 9.34570312 89.41455078 C52.1368114 113.97583812 52.1368114 113.97583812 56.56640625 128.0625 C57.89877669 134.01615529 57.01152851 138.78616323 54 144 C45.96711506 156.62604736 35.52030135 169.13664092 22 176 C21.67 176 21.34 176 21 176 C20.91363281 175.34515625 20.82726562 174.6903125 20.73828125 174.015625 C16.89156174 149.0295937 -0.8592246 133.44627688 -20 119 C-22.1281968 117.37912448 -24.25167367 115.7522711 -26.375 114.125 C-26.89811768 113.72466553 -27.42123535 113.32433105 -27.96020508 112.91186523 C-33.80711066 108.41662094 -39.51830741 103.75603681 -45.22265625 99.08203125 C-47.44294911 97.26301612 -49.67469778 95.47084288 -51.93359375 93.69921875 C-63.53826468 84.54308166 -75.04345949 74.20638484 -82 61 C-82.639375 59.88625 -83.27875 58.7725 -83.9375 57.625 C-86.28302657 49.62261523 -86.02798875 42.28180821 -82.5 34.6875 C-73.4836374 18.87770291 -56.82392793 12.69460403 -40 8 C-32.19723639 6.03224766 -24.16703717 5.45214518 -16.16723633 4.78442383 C-7.35676106 4.22459357 -7.35676106 4.22459357 0 0 Z " fill="#E6962D" transform="translate(270,399)"/>
<path d="M0 0 C-2.47359841 1.36742743 -4.95369869 2.72081502 -7.44140625 4.0625 C-9.8457286 5.36090113 -12.22163828 6.69950405 -14.58984375 8.0625 C-25.82757772 14.3793501 -37.56266002 19.19617534 -49.5 24 C-65.27541362 30.30062165 -65.27541362 30.30062165 -80.5625 37.6875 C-81.62017578 38.24727539 -81.62017578 38.24727539 -82.69921875 38.81835938 C-89.30459267 42.47538319 -95.31233855 46.70707594 -98 54 C-98.9429334 58.8782371 -98.24544059 62.99283006 -95.50292969 67.23608398 C-89.24758549 74.57767948 -80.12264995 79.72274733 -72.125 84.9375 C-41.55813628 105.12281305 -41.55813628 105.12281305 -38 114 C-38.375 116.25 -38.375 116.25 -39 118 C-39.51578613 117.42540039 -40.03157227 116.85080078 -40.56298828 116.25878906 C-43.44772745 113.58501559 -46.56833789 111.73956061 -49.9921875 109.859375 C-50.68891571 109.47239441 -51.38564392 109.08541382 -52.10348511 108.68670654 C-60.07504105 104.31981461 -68.27248836 100.42498037 -76.47525024 96.5163269 C-129.43215623 71.20799178 -129.43215623 71.20799178 -137 56 C-137.84840442 51.60511226 -137.42169073 47.95838803 -135.625 43.875 C-113.91238082 20.09451233 -69.65942593 15.80056802 -39.65307617 8.87280273 C-38.39295212 8.58068909 -37.13282806 8.28857544 -35.83451843 7.98760986 C-33.4665139 7.43982113 -31.09753215 6.89623105 -28.72737122 6.35784912 C-0.52547588 -0.15764277 -0.52547588 -0.15764277 0 0 Z " fill="#E6962C" transform="translate(396,387)"/>
<path d="M0 0 C7.03935552 -0.05150064 14.078661 -0.08606188 21.11816406 -0.10986328 C23.50359919 -0.11980527 25.88902252 -0.13336356 28.27441406 -0.15087891 C39.93279389 -0.23422308 51.53563072 -0.27582797 63.1484375 0.87109375 C63.92298279 0.94750092 64.69752808 1.02390808 65.49554443 1.10263062 C84.18210724 3.21164175 100.22506415 11.37510996 115.09375 22.56738281 C117.19871356 24.14934057 119.31746673 25.71174058 121.4375 27.2734375 C122.9172669 28.36898139 124.39644445 29.46532181 125.875 30.5625 C126.58382324 31.08739014 127.29264648 31.61228027 128.02294922 32.15307617 C129.70085381 33.41056852 131.35331256 34.70189704 133 36 C133 36.33 133 36.66 133 37 C119.82157732 36.96194018 106.64343866 36.90257365 93.46523952 36.81609726 C87.34587477 36.77660904 81.22665422 36.74442695 75.10717773 36.72900391 C69.20016266 36.7138465 63.29354398 36.67941639 57.3867054 36.63169098 C55.13453685 36.61686789 52.8823117 36.60895846 50.63009453 36.60811615 C47.47228745 36.60574764 44.31557681 36.5786757 41.15795898 36.54589844 C40.22935059 36.5509288 39.30074219 36.55595917 38.34399414 36.56114197 C31.72810201 36.45508225 27.15462407 35.14498252 22.32250977 30.32763672 C21.94924561 29.78381348 21.57598145 29.23999023 21.19140625 28.6796875 C20.54196045 27.76026367 20.54196045 27.76026367 19.87939453 26.82226562 C19.44481934 26.17966797 19.01024414 25.53707031 18.5625 24.875 C17.61506409 23.52739064 16.66583693 22.18103889 15.71484375 20.8359375 C15.02624268 19.85318848 15.02624268 19.85318848 14.32373047 18.85058594 C11.97501841 15.56706742 9.41481631 12.46030529 6.8515625 9.34375 C5.2999177 7.37964266 3.83395612 5.39250679 2.38427734 3.35351562 C1.9369223 2.72497681 1.48956726 2.09643799 1.02865601 1.44885254 C0.68919952 0.9707312 0.34974304 0.49260986 0 0 Z " fill="#F8EEDB" transform="translate(228,250)"/>
<path d="M0 0 C0.60328125 0.47824219 1.2065625 0.95648438 1.828125 1.44921875 C9.30427715 8.13397642 15.63220297 19.03462162 17 29 C15.03318843 30.96681157 11.38693242 30.17002962 8.75292969 30.19018555 C-62.80295734 30.13111059 -62.80295734 30.13111059 -85 24 C-81.31891329 12.07927154 -64.15873548 2.12609694 -53.7265625 -3.88671875 C-35.85995448 -13.18005517 -16.13160665 -12.84901227 0 0 Z " fill="#F7EEDA" transform="translate(213,261)"/>
<path d="M0 0 C5.90523189 0.93521251 11.80928355 1.87746844 17.71240234 2.82592773 C19.71568259 3.14681968 21.71925854 3.46587175 23.72314453 3.78295898 C56.95923871 9.04603125 56.95923871 9.04603125 63 15 C63.5 17.8125 63.5 17.8125 63 20 C57.22492891 22.64200464 51.81633217 22.34292691 45.5625 22.3125 C43.80993896 22.30512817 43.80993896 22.30512817 42.02197266 22.29760742 C26.06111976 22.08114016 15.24176813 19.3919145 3.6640625 8.16015625 C1.67595597 5.5793513 0.96652041 3.09049511 0 0 Z " fill="#F7EFDD" transform="translate(296,315)"/>
<path d="M0 0 C-0.02133725 4.8968994 -0.19270834 8.04780984 -3.4375 11.875 C-12.30172881 18.03957159 -24.14519297 18.15033185 -34.5390625 18.203125 C-35.42355072 18.20882507 -36.30803894 18.21452515 -37.21932983 18.22039795 C-39.07654647 18.22978601 -40.9337793 18.23635705 -42.79101562 18.24023438 C-45.62399036 18.24999652 -48.45625572 18.28110069 -51.2890625 18.3125 C-53.10155823 18.31902618 -54.9140591 18.32427816 -56.7265625 18.328125 C-57.5673233 18.3404718 -58.40808411 18.3528186 -59.27432251 18.36553955 C-64.28320699 18.34662109 -67.609005 17.68402559 -72 15 C-71.34 13.68 -70.68 12.36 -70 11 C-68.89265503 10.970271 -68.89265503 10.970271 -67.76293945 10.93994141 C-45.82158751 10.32427057 -19.40535563 0 0 0 Z " fill="#F4EEDE" transform="translate(451,321)"/>
<path d="M0 0 C0.99 0.33 1.98 0.66 3 1 C3.495 5.95 3.495 5.95 4 11 C4.33 8.36 4.66 5.72 5 3 C5.33 3 5.66 3 6 3 C6.495 11.415 6.495 11.415 7 20 C7.33 20 7.66 20 8 20 C8.99 25.94 8.99 25.94 10 32 C8.79601562 31.59007812 7.59203125 31.18015625 6.3515625 30.7578125 C0.0660489 28.66427369 -6.27807155 26.77244989 -12.625 24.875 C-13.93684896 24.48144531 -15.24869792 24.08789062 -16.56054688 23.69433594 C-23.48558686 21.62115092 -30.41928669 19.58120229 -37.3671875 17.5859375 C-38.05140778 17.38906342 -38.73562805 17.19218933 -39.44058228 16.98934937 C-42.71472441 16.04776887 -45.99007261 15.11124029 -49.26806641 14.18310547 C-57.65074557 11.78114331 -65.82510722 9.02414741 -74 6 C-70.13863302 4.59017248 -67.08251178 5.36632405 -63.12011719 6.17163086 C-62.43678314 6.30803482 -61.7534491 6.44443878 -61.04940796 6.5849762 C-58.79682461 7.03674435 -56.54694098 7.50071442 -54.296875 7.96484375 C-52.73332705 8.28091134 -51.16962424 8.59621376 -49.60577393 8.91078186 C-45.49427017 9.73994847 -41.38495177 10.57948994 -37.27600098 11.42120361 C-33.08110348 12.27861042 -28.88422398 13.12619654 -24.6875 13.97460938 C-16.4563554 15.64013116 -8.22769535 17.31752155 0 19 C0 12.73 0 6.46 0 0 Z " fill="#F1EDDE" transform="translate(232,353)"/>
<path d="M0 0 C1.15510359 3.46531077 0.82050709 3.9709853 -0.42578125 7.2421875 C-2.63166591 14.14985819 -2.32648205 20.94069722 -2.1875 28.125 C-2.17241432 29.47654746 -2.15873283 30.82811135 -2.14648438 32.1796875 C-2.11140724 35.45355371 -2.06225097 38.7265568 -2 42 C-6.00967928 38.20828982 -8.27516559 34.27927338 -10.8125 29.4375 C-11.23208984 28.66986328 -11.65167969 27.90222656 -12.08398438 27.11132812 C-12.67083008 26.00241211 -12.67083008 26.00241211 -13.26953125 24.87109375 C-13.62635986 24.20005615 -13.98318848 23.52901855 -14.35083008 22.83764648 C-15 21 -15 21 -14 18 C-11.69 22.62 -9.38 27.24 -7 32 C-4.7757213 30.2262847 -4.7757213 30.2262847 -4.91015625 27.92578125 C-4.96042969 27.06339844 -5.01070312 26.20101563 -5.0625 25.3125 C-5.22501862 17.12156158 -4.15564803 7.20914592 0 0 Z " fill="#051B24" transform="translate(105,325)"/>
<path d="M0 0 C4.55315948 0.61811534 8.28459767 2.46765893 12.3125 4.5625 C13.28026367 5.0565332 13.28026367 5.0565332 14.26757812 5.56054688 C15.84785228 6.36824255 17.42432105 7.18337613 19 8 C19.33 6.68 19.66 5.36 20 4 C23.36720387 5.39332574 24.9859524 6.9789286 27 10 C26.34 10 25.68 10 25 10 C25.66 11.32 26.32 12.64 27 14 C23.46561134 12.63526364 20.08345045 11.10044876 16.69921875 9.3984375 C15.72275391 8.90859375 14.74628906 8.41875 13.74023438 7.9140625 C12.73283203 7.40617187 11.72542969 6.89828125 10.6875 6.375 C9.66076172 5.859375 8.63402344 5.34375 7.57617188 4.8125 C5.04986651 3.54347219 2.52451618 2.27258234 0 1 C0 0.67 0 0.34 0 0 Z " fill="#E28617" transform="translate(323,484)"/>
<path d="M0 0 C-4.81422229 4.81422229 -15.07811729 3.1197487 -21.4140625 3.1328125 C-24.70473728 3.01093566 -27.77162664 2.62580776 -31 2 C-31 1.67 -31 1.34 -31 1 C-27.14697307 0.63263823 -23.2925001 0.28349017 -19.4375 -0.0625 C-18.35146484 -0.16626953 -17.26542969 -0.27003906 -16.14648438 -0.37695312 C-10.5472439 -0.8705032 -5.51895858 -1.1322971 0 0 Z " fill="#EBEBDD" transform="translate(372,387)"/>
<path d="M0 0 C5.55313696 0.64411386 11.01255636 1.50057804 16.5 2.5625 C17.22703125 2.70107422 17.9540625 2.83964844 18.703125 2.98242188 C20.46918037 3.31936665 22.23465426 3.65935683 24 4 C23.67 4.66 23.34 5.32 23 6 C17.40275269 7.80471993 13.35158937 6.08669605 8.125 4.0625 C7.34125 3.77181641 6.5575 3.48113281 5.75 3.18164062 C3.82861745 2.46698004 1.91362174 1.73518875 0 1 C0 0.67 0 0.34 0 0 Z " fill="#E0E6DE" transform="translate(158,358)"/>
<path d="M0 0 C0.33 0 0.66 0 1 0 C1.33 3.3 1.66 6.6 2 10 C2.33 7.36 2.66 4.72 3 2 C3.33 2 3.66 2 4 2 C4.06058594 3.18078125 4.12117187 4.3615625 4.18359375 5.578125 C4.26802582 7.1354277 4.35267249 8.69271879 4.4375 10.25 C4.47681641 11.02730469 4.51613281 11.80460937 4.55664062 12.60546875 C4.59853516 13.35957031 4.64042969 14.11367188 4.68359375 14.890625 C4.72025146 15.58188477 4.75690918 16.27314453 4.79467773 16.98535156 C5.00675524 19.06628329 5.44508677 20.98572422 6 23 C5.34 23.33 4.68 23.66 4 24 C3.34 21.03 2.68 18.06 2 15 C1.34 15.99 0.68 16.98 0 18 C0 12.06 0 6.12 0 0 Z " fill="#EDE5D1" transform="translate(234,354)"/>
<path d="M0 0 C0 0.99 0 1.98 0 3 C-0.98742187 3.13277344 -1.97484375 3.26554687 -2.9921875 3.40234375 C-4.27351563 3.57894531 -5.55484375 3.75554687 -6.875 3.9375 C-8.78925781 4.19853516 -8.78925781 4.19853516 -10.7421875 4.46484375 C-13.87559454 4.81433227 -13.87559454 4.81433227 -16 6 C-17.32 4.68 -18.64 3.36 -20 2 C-17.2294096 1.66453392 -14.45856036 1.33154158 -11.6875 1 C-10.90181641 0.90460938 -10.11613281 0.80921875 -9.30664062 0.7109375 C-8.54931641 0.62070312 -7.79199219 0.53046875 -7.01171875 0.4375 C-6.31522217 0.35371094 -5.61872559 0.26992188 -4.90112305 0.18359375 C-3 0 -3 0 0 0 Z " fill="#0D333B" transform="translate(437,337)"/>
<path d="M0 0 C2.99156394 2.02370502 4.41995825 4.28001528 6.125 7.4375 C5.875 9.8125 5.875 9.8125 5.125 11.4375 C3.79166667 10.10416667 2.45833333 8.77083333 1.125 7.4375 C0.2175 6.57125 -0.69 5.705 -1.625 4.8125 C-3.875 2.4375 -3.875 2.4375 -3.875 0.4375 C-1.875 -0.5625 -1.875 -0.5625 0 0 Z " fill="#E48F1F" transform="translate(351.875,493.5625)"/>
<path d="M0 0 C-0.99 0.495 -0.99 0.495 -2 1 C-2.33 1.99 -2.66 2.98 -3 4 C-6.29701062 5.34807677 -9.7354961 5.10070113 -13.25 5.0625 C-14.32765625 5.05347656 -15.4053125 5.04445313 -16.515625 5.03515625 C-17.33546875 5.02355469 -18.1553125 5.01195312 -19 5 C-16.48768622 2.48768622 -14.62148234 2.21338287 -11.1875 1.375 C-10.14980469 1.11460937 -9.11210937 0.85421875 -8.04296875 0.5859375 C-5.26412163 0.05085782 -2.81823638 -0.11460481 0 0 Z " fill="#E58F26" transform="translate(382,391)"/>
<path d="M0 0 C5.61 0.33 11.22 0.66 17 1 C17 1.33 17 1.66 17 2 C12.545 2.495 12.545 2.495 8 3 C8.33 3.99 8.66 4.98 9 6 C2.375 5.25 2.375 5.25 -1 3 C-0.67 2.01 -0.34 1.02 0 0 Z " fill="#E6E4D4" transform="translate(380,333)"/>
<path d="M0 0 C9.24 0 18.48 0 28 0 C28 0.33 28 0.66 28 1 C19.75 1 11.5 1 3 1 C3.33 1.99 3.66 2.98 4 4 C3.34 4.66 2.68 5.32 2 6 C0 1.125 0 1.125 0 0 Z " fill="#EFE9D3" transform="translate(231,251)"/>
<path d="M0 0 C0.66 1.32 1.32 2.64 2 4 C1 5 1 5 -1.50024414 5.11352539 C-2.58426514 5.10828857 -3.66828613 5.10305176 -4.78515625 5.09765625 C-5.95498047 5.09443359 -7.12480469 5.09121094 -8.33007812 5.08789062 C-10.17762695 5.07532227 -10.17762695 5.07532227 -12.0625 5.0625 C-13.91584961 5.05573242 -13.91584961 5.05573242 -15.80664062 5.04882812 C-18.87114117 5.03699608 -21.93554721 5.02051173 -25 5 C-25 4.67 -25 4.34 -25 4 C-12.625 3.505 -12.625 3.505 0 3 C0 2.01 0 1.02 0 0 Z " fill="#C7D4CA" transform="translate(228,286)"/>
<path d="M0 0 C6.6 2.31 13.2 4.62 20 7 C15.74412077 8.06396981 14.32535515 7.77540332 10.25 6.5625 C9.26515625 6.27503906 8.2803125 5.98757813 7.265625 5.69140625 C6.51796875 5.46324219 5.7703125 5.23507812 5 5 C5 4.34 5 3.68 5 3 C3.35 2.67 1.7 2.34 0 2 C0 1.34 0 0.68 0 0 Z " fill="#06222C" transform="translate(157,358)"/>
<path d="M0 0 C0.33 0.66 0.66 1.32 1 2 C-0.07644681 4.72191454 -1.20704447 7.3490751 -2.4375 10 C-4.95647164 14.81802716 -4.95647164 14.81802716 -6 20 C-6.66 20 -7.32 20 -8 20 C-8.33 20.66 -8.66 21.32 -9 22 C-8.4560915 16.52638111 -6.44606199 12.41682999 -3.9375 7.625 C-3.37192383 6.52091797 -3.37192383 6.52091797 -2.79492188 5.39453125 C-1.87055636 3.59260354 -0.93627386 1.79576901 0 0 Z " fill="#F6F7ED" transform="translate(123,169)"/>
<path d="M0 0 C5.28 0 10.56 0 16 0 C15.67 0.99 15.34 1.98 15 3 C9.72 3 4.44 3 -1 3 C-0.67 2.01 -0.34 1.02 0 0 Z " fill="#EAE8D9" transform="translate(176,251)"/>
<path d="M0 0 C-0.33 0.66 -0.66 1.32 -1 2 C-0.01 2.33 0.98 2.66 2 3 C0.0085944 3.38133299 -1.99279077 3.71325582 -4 4 C-4.33 3.67 -4.66 3.34 -5 3 C-7.01964199 2.92755947 -9.04167124 2.91622812 -11.0625 2.9375 C-12.16722656 2.94652344 -13.27195312 2.95554687 -14.41015625 2.96484375 C-15.26480469 2.97644531 -16.11945313 2.98804688 -17 3 C-11.43378861 0.06790578 -6.24009471 -0.12480189 0 0 Z " fill="#F8F7EC" transform="translate(392,383)"/>
<path d="M0 0 C0.66 0 1.32 0 2 0 C3.23030726 1.5988191 4.38640163 3.25530585 5.5 4.9375 C7.70978178 8.56770686 7.70978178 8.56770686 11 11 C11.625 14.0625 11.625 14.0625 12 17 C6.85104502 12.47516078 3.43278366 6.89607799 0 1 C0 0.67 0 0.34 0 0 Z " fill="#0F2830" transform="translate(117,385)"/>
<path d="M0 0 C0.33 0 0.66 0 1 0 C1.12375 1.134375 1.2475 2.26875 1.375 3.4375 C1.58125 4.613125 1.7875 5.78875 2 7 C2.66 7.33 3.32 7.66 4 8 C3.74438677 10.3431213 3.40729228 12.67843403 3 15 C2.01 15.495 2.01 15.495 1 16 C-0.14077657 12.57767028 -0.09815117 9.91326783 -0.0625 6.3125 C-0.05347656 5.13300781 -0.04445312 3.95351563 -0.03515625 2.73828125 C-0.02355469 1.83464844 -0.01195312 0.93101562 0 0 Z " fill="#F6F7EE" transform="translate(132,348)"/>
<path d="M0 0 C4.58716587 4.44381694 8.78762713 9.20228499 13 14 C12.34 14.66 11.68 15.32 11 16 C10.67 15.01 10.34 14.02 10 13 C9.34 13 8.68 13 8 13 C6.55473264 11.26451831 5.1912778 9.46024037 3.875 7.625 C3.15054688 6.62726563 2.42609375 5.62953125 1.6796875 4.6015625 C0 2 0 2 0 0 Z " fill="#0D2B46" transform="translate(189,463)"/>
<path d="M0 0 C0.33 3.96 0.66 7.92 1 12 C0.01 12 -0.98 12 -2 12 C-3.17571451 8.32589215 -3.07366746 4.83070817 -3 1 C-1 0 -1 0 0 0 Z " fill="#EEE5D2" transform="translate(136,347)"/>
<path d="M0 0 C4.95 0.99 4.95 0.99 10 2 C10 2.33 10 2.66 10 3 C8.02 3 6.04 3 4 3 C4.7734375 4.175625 4.7734375 4.175625 5.5625 5.375 C6.036875 6.24125 6.51125 7.1075 7 8 C6.67 8.66 6.34 9.32 6 10 C1.125 4.5 1.125 4.5 0 0 Z " fill="#F4F6ED" transform="translate(296,315)"/>
<path d="M0 0 C1.13732426 3.40401948 0.83989957 5.77456664 0.0625 9.25 C-0.13214844 10.14203125 -0.32679687 11.0340625 -0.52734375 11.953125 C-0.68332031 12.62859375 -0.83929688 13.3040625 -1 14 C-1.99 14 -2.98 14 -4 14 C-3.88590407 12.54077307 -3.75834456 11.08259402 -3.625 9.625 C-3.55539063 8.81289062 -3.48578125 8.00078125 -3.4140625 7.1640625 C-3 5 -3 5 -1 3 C-0.67 2.01 -0.34 1.02 0 0 Z " fill="#EBE9DA" transform="translate(107,214)"/>
<path d="M0 0 C-1 2 -1 2 -2.85546875 2.74609375 C-3.62503906 2.97425781 -4.39460938 3.20242188 -5.1875 3.4375 C-9.00630834 4.63316523 -12.46650865 6.09735081 -16 8 C-15 5 -15 5 -12.3828125 3.359375 C-11.30773437 2.82828125 -10.23265625 2.2971875 -9.125 1.75 C-8.05507813 1.20859375 -6.98515625 0.6671875 -5.8828125 0.109375 C-3 -1 -3 -1 0 0 Z " fill="#072A46" transform="translate(328,420)"/>
<path d="M0 0 C1.33332095 2.6666419 0.67102033 4.16680303 0 7 C-0.66 7 -1.32 7 -2 7 C-2.268125 7.9075 -2.53625 8.815 -2.8125 9.75 C-3.89576294 12.71471963 -4.98359457 14.6169754 -7 17 C-6.37954537 12.76677156 -4.89476441 9.47709705 -2.9375 5.6875 C-2.38964844 4.61886719 -1.84179688 3.55023438 -1.27734375 2.44921875 C-0.64505859 1.23685547 -0.64505859 1.23685547 0 0 Z " fill="#0F252C" transform="translate(95,157)"/>
<path d="M0 0 C0.99 0.33 1.98 0.66 3 1 C3.73046875 2.84765625 3.73046875 2.84765625 4.1875 5.0625 C4.34605469 5.79597656 4.50460938 6.52945312 4.66796875 7.28515625 C4.83232422 8.13400391 4.83232422 8.13400391 5 9 C2.97954558 8.39816251 0.97888961 7.72693904 -1 7 C-1.33 6.34 -1.66 5.68 -2 5 C-1.34 5 -0.68 5 0 5 C0 3.35 0 1.7 0 0 Z " fill="#F4F3E8" transform="translate(237,376)"/>
<path d="M0 0 C0.33 0 0.66 0 1 0 C1.125 2.875 1.125 2.875 1 6 C0.34 6.66 -0.32 7.32 -1 8 C-1.39764263 9.98821313 -1.73775349 11.98944339 -2 14 C-2.33 14 -2.66 14 -3 14 C-3.33 10.37 -3.66 6.74 -4 3 C-3.01 3 -2.02 3 -1 3 C-0.67 2.01 -0.34 1.02 0 0 Z " fill="#E1E2D4" transform="translate(134,338)"/>
<path d="M0 0 C0.33 0 0.66 0 1 0 C1.02708567 1.60407328 1.04643483 3.2082785 1.0625 4.8125 C1.07410156 5.70582031 1.08570313 6.59914063 1.09765625 7.51953125 C1 10 1 10 0 13 C-0.99 13 -1.98 13 -3 13 C-2.01 8.71 -1.02 4.42 0 0 Z " fill="#E7EADF" transform="translate(487,309)"/>
<path d="M0 0 C0.33 0.66 0.66 1.32 1 2 C1.99 2.33 2.98 2.66 4 3 C3.01 4.98 2.02 6.96 1 9 C0.34 9 -0.32 9 -1 9 C-1.625 5.625 -1.625 5.625 -2 2 C-1.34 1.34 -0.68 0.68 0 0 Z " fill="#E3E0D1" transform="translate(103,276)"/>
<path d="M0 0 C3.375 -0.125 3.375 -0.125 7 0 C7.66 0.66 8.32 1.32 9 2 C4.545 2.495 4.545 2.495 0 3 C0 2.01 0 1.02 0 0 Z " fill="#E3E3D7" transform="translate(328,334)"/>
<path d="M0 0 C5.84615385 4.30769231 5.84615385 4.30769231 7 8 C6.70865843 9.34313401 6.37974823 10.67913658 6 12 C5.18432826 10.56429734 4.37257907 9.12636566 3.5625 7.6875 C3.11003906 6.88699219 2.65757812 6.08648437 2.19140625 5.26171875 C1 3 1 3 0 0 Z " fill="#F0A222" transform="translate(351,493)"/>
<path d="M0 0 C1.65 1.65 3.3 3.3 5 5 C4.34 5 3.68 5 3 5 C2.67 5.66 2.34 6.32 2 7 C0.62437146 5.71034824 -0.70766393 4.37310707 -2 3 C-2 2.34 -2 1.68 -2 1 C-1.34 0.67 -0.68 0.34 0 0 Z " fill="#E6942C" transform="translate(345,489)"/>
<path d="M0 0 C-8.261959 4.59225513 -8.261959 4.59225513 -13 4 C-11.72807637 1.45615274 -10.80051531 1.30631844 -8.1875 0.3125 C-7.50042969 0.04050781 -6.81335938 -0.23148437 -6.10546875 -0.51171875 C-3.70623504 -1.06812731 -2.3105636 -0.77364938 0 0 Z " fill="#D88C20" transform="translate(396,387)"/>
<path d="M0 0 C4.455 0.99 4.455 0.99 9 2 C5.3558226 4.4294516 3.28758728 4.16179575 -1 4 C-0.67 2.68 -0.34 1.36 0 0 Z " fill="#F1E7CD" transform="translate(390,382)"/>
<path d="M0 0 C1.485 0.99 1.485 0.99 3 2 C3.6875 5.625 3.6875 5.625 4 9 C3.01 8.67 2.02 8.34 1 8 C-0.35439668 5.29120665 -0.06501451 2.99066732 0 0 Z " fill="#ECEBDC" transform="translate(108,365)"/>
<path d="M0 0 C7.42857143 -0.28571429 7.42857143 -0.28571429 11 2 C10.67 2.33 10.34 2.66 10 3 C2.39655172 2.39655172 2.39655172 2.39655172 0 0 Z " fill="#F3F0E3" transform="translate(177,364)"/>
<path d="M0 0 C0.125 2.875 0.125 2.875 0 6 C-0.66 6.66 -1.32 7.32 -2 8 C-4 5 -4 5 -4 2 C-1 0 -1 0 0 0 Z " fill="#F3F3EA" transform="translate(451,321)"/>
<path d="M0 0 C0.66 0.33 1.32 0.66 2 1 C2.125 4.375 2.125 4.375 2 8 C1.34 8.66 0.68 9.32 0 10 C0 7.69 0 5.38 0 3 C-0.66 3 -1.32 3 -2 3 C-2 2.34 -2 1.68 -2 1 C-1.34 0.67 -0.68 0.34 0 0 Z " fill="#1D373E" transform="translate(451,318)"/>
<path d="M0 0 C0.99 0.33 1.98 0.66 3 1 C2.67 3.31 2.34 5.62 2 8 C1.01 8 0.02 8 -1 8 C-0.67 5.36 -0.34 2.72 0 0 Z " fill="#DDE1D5" transform="translate(489,299)"/>
<path d="M0 0 C0.33 0 0.66 0 1 0 C1 3.96 1 7.92 1 12 C-0.65 10.68 -2.3 9.36 -4 8 C-3.67 7.34 -3.34 6.68 -3 6 C-1.515 6.99 -1.515 6.99 0 8 C0 5.36 0 2.72 0 0 Z " fill="#E9ECE5" transform="translate(463,243)"/>
<path d="M0 0 C3 -0.375 3 -0.375 6 0 C6.66 0.99 7.32 1.98 8 3 C4.7 3 1.4 3 -2 3 C-1.34 2.01 -0.68 1.02 0 0 Z " fill="#104349" transform="translate(206,237)"/>
<path d="M0 0 C-0.99 0.495 -0.99 0.495 -2 1 C-2 1.66 -2 2.32 -2 3 C-4.97 3 -7.94 3 -11 3 C-7.72430636 -0.27569364 -4.48909309 -0.12469703 0 0 Z " fill="#E1871A" transform="translate(382,391)"/>
<path d="M0 0 C2.125 0.9375 2.125 0.9375 4 2 C1.4345406 4.5654594 -0.47686668 4.54046087 -4 5 C-3.34 4.67 -2.68 4.34 -2 4 C-2 3.01 -2 2.02 -2 1 C-1.34 0.67 -0.68 0.34 0 0 Z " fill="#E8E5D6" transform="translate(199,366)"/>
<path d="M0 0 C0 0.33 0 0.66 0 1 C-3.96 0.67 -7.92 0.34 -12 0 C-12 -0.33 -12 -0.66 -12 -1 C-7.28400182 -1.92470553 -4.32734391 -2.22923777 0 0 Z " fill="#F0F2EB" transform="translate(361,286)"/>
<path d="M0 0 C0.99 0.33 1.98 0.66 3 1 C3 1.66 3 2.32 3 3 C4.32 3.66 5.64 4.32 7 5 C6.67 5.99 6.34 6.98 6 8 C4.9970458 6.85675161 3.99770973 5.71032809 3 4.5625 C2.443125 3.92441406 1.88625 3.28632813 1.3125 2.62890625 C0 1 0 1 0 0 Z " fill="#173244" transform="translate(298,451)"/>
<path d="M0 0 C2.64 0.33 5.28 0.66 8 1 C6 3 6 3 2.875 3.125 C1.451875 3.063125 1.451875 3.063125 0 3 C0 2.01 0 1.02 0 0 Z " fill="#DADFD5" transform="translate(214,369)"/>
<path d="M0 0 C4.67461851 -0.32613618 7.16674383 0.29417212 11 3 C10.34 3.66 9.68 4.32 9 5 C8.1646875 4.2575 8.1646875 4.2575 7.3125 3.5 C4.61837017 1.75245633 3.14624993 1.73781251 0 2 C0 1.34 0 0.68 0 0 Z " fill="#DFE5DF" transform="translate(117,328)"/>
<path d="M0 0 C2.31 0.33 4.62 0.66 7 1 C6.67 1.99 6.34 2.98 6 4 C3.03 3.505 3.03 3.505 0 3 C0 2.01 0 1.02 0 0 Z " fill="#153F46" transform="translate(339,320)"/>
</svg>
